HIERARCHY
ROOT joint_0
{
	OFFSET 0.000000 0.000000 0.000000
	CHANNELS 6 Xposition Yposition Zposition Zrotation Yrotation Xrotation 
	JOINT joint_1
	{
		OFFSET 4.520508 -1.939880 86.268921
		CHANNELS 3 Zrotation Yrotation Xrotation
		JOINT joint_2
		{
			OFFSET -4.459717 -0.438538 78.934082
			CHANNELS 3 Zrotation Yrotation Xrotation
			JOINT joint_3
			{
				OFFSET -5.197754 -0.781128 78.796997
				CHANNELS 3 Zrotation Yrotation Xrotation
				JOINT joint_4
				{
					OFFSET 2.952026 -3.710571 109.812988
					CHANNELS 3 Zrotation Yrotation Xrotation
					JOINT joint_5
					{
						OFFSET 24.716797 -5.488037 87.903931
						CHANNELS 3 Zrotation Yrotation Xrotation
						End Site
						{
							OFFSET 0.000000 0.000000 0.000000
						}
					}
				}
				JOINT joint_6
				{
					OFFSET -3.154419 -25.484680 60.934937
					CHANNELS 3 Zrotation Yrotation Xrotation
					JOINT joint_7
					{
						OFFSET -28.997192 -144.472229 -32.671997
						CHANNELS 3 Zrotation Yrotation Xrotation
						JOINT joint_8
						{
							OFFSET 19.867676 -18.614380 -249.897949
							CHANNELS 3 Zrotation Yrotation Xrotation
							JOINT joint_9
							{
								OFFSET 5.281982 -13.816650 -264.993042
								CHANNELS 3 Zrotation Yrotation Xrotation
								End Site
								{
									OFFSET 0.000000 0.000000 0.000000
								}
							}
						}
					}
				}
				JOINT joint_10
				{
					OFFSET 6.494995 21.336792 62.257935
					CHANNELS 3 Zrotation Yrotation Xrotation
					JOINT joint_11
					{
						OFFSET 31.106567 145.200745 -27.007935
						CHANNELS 3 Zrotation Yrotation Xrotation
						JOINT joint_12
						{
							OFFSET 29.119141 24.684326 -248.460083
							CHANNELS 3 Zrotation Yrotation Xrotation
							JOINT joint_13
							{
								OFFSET 21.220093 31.248413 -262.703979
								CHANNELS 3 Zrotation Yrotation Xrotation
								End Site
								{
									OFFSET 0.000000 0.000000 0.000000
								}
							}
						}
					}
				}
			}
		}
	}
	JOINT joint_14
	{
		OFFSET -15.458496 -88.861694 -109.593018
		CHANNELS 3 Zrotation Yrotation Xrotation
		JOINT joint_15
		{
			OFFSET -6.193359 6.837952 -506.710999
			CHANNELS 3 Zrotation Yrotation Xrotation
			JOINT joint_16
			{
				OFFSET -35.096680 13.289795 -435.677025
				CHANNELS 3 Zrotation Yrotation Xrotation
				JOINT joint_17
				{
					OFFSET 158.491211 -33.916565 -71.771002
					CHANNELS 3 Zrotation Yrotation Xrotation
					End Site
					{
						OFFSET 0.000000 0.000000 0.000000
					}
				}
			}
		}
	}
	JOINT joint_18
	{
		OFFSET 23.116943 86.574158 -110.082031
		CHANNELS 3 Zrotation Yrotation Xrotation
		JOINT joint_19
		{
			OFFSET -6.125854 -0.283569 -506.757019
			CHANNELS 3 Zrotation Yrotation Xrotation
			JOINT joint_20
			{
				OFFSET -63.240234 11.589966 -432.537994
				CHANNELS 3 Zrotation Yrotation Xrotation
				JOINT joint_21
				{
					OFFSET 156.074219 -41.487305 -73.077999
					CHANNELS 3 Zrotation Yrotation Xrotation
					End Site
					{
						OFFSET 0.000000 0.000000 0.000000
					}
				}
			}
		}
	}
}
MOTION
Frames: 18
Frame Time: 0.016667
-392.368805 924.780762 1141.654053 15.261764 0.089943 0.776961 -0.930547 -0.659862 -1.037814 -0.851862 0.141407 0.194924 -0.872111 -0.091486 -0.107951 -0.083751 2.210416 0.798458 0.000000 0.000000 0.000000 3.500721 -0.409095 -0.632307 0.137433 0.045946 0.928921 0.057226 -1.192953 -1.188476 0.000000 0.000000 0.000000 -1.295296 -0.327961 0.403814 -0.201512 0.140999 -0.821534 -0.537882 -3.200003 -0.864845 0.000000 0.000000 0.000000 0.004423 0.508811 -2.073574 -0.005297 0.893060 0.775592 0.034467 -0.682054 -0.130347 0.000000 0.000000 0.000000 -5.802847 1.340538 1.085646 -5.737055 -1.631749 -2.671397 -5.703803 2.302516 -2.051623 0.000000 0.000000 0.000000 
-392.759735 924.817688 1141.665039 15.272439 0.090346 0.771691 -0.928655 -0.616017 -1.024821 -0.851363 0.132088 0.193324 -0.871250 -0.081306 -0.106236 -0.084104 2.206430 0.798319 0.000000 0.000000 0.000000 3.504071 -0.416106 -0.634321 0.137876 0.038676 0.931377 0.057740 -1.200863 -1.189129 0.000000 0.000000 0.000000 -1.287251 -0.322544 0.391597 -0.202614 0.143810 -0.828982 -0.538414 -3.203072 -0.862787 0.000000 0.000000 0.000000 0.001676 0.482362 -2.078896 -0.007567 0.902018 0.782381 0.032960 -0.665664 -0.127525 0.000000 0.000000 0.000000 -5.805404 1.311635 1.088049 -5.739913 -1.620160 -2.677454 -5.707737 2.315938 -2.049945 0.000000 0.000000 0.000000 
-393.160248 924.851074 1141.677002 15.280562 0.092033 0.765982 -0.923908 -0.567067 -1.013913 -0.847881 0.120899 0.192503 -0.867491 -0.071047 -0.105222 -0.085716 2.202357 0.802545 0.000000 0.000000 0.000000 3.503266 -0.420539 -0.636994 0.138556 0.032003 0.938072 0.058373 -1.210190 -1.188796 0.000000 0.000000 0.000000 -1.284412 -0.317667 0.378586 -0.203608 0.146389 -0.834038 -0.538557 -3.206162 -0.856137 0.000000 0.000000 0.000000 -0.000425 0.452912 -2.085173 -0.009148 0.912513 0.791845 0.032337 -0.648699 -0.124180 0.000000 0.000000 0.000000 -5.806928 1.281047 1.091821 -5.741708 -1.608974 -2.685063 -5.710893 2.331260 -2.047396 0.000000 0.000000 0.000000 
-393.568817 924.884338 1141.686035 15.287167 0.095286 0.761886 -0.920011 -0.517158 -1.005035 -0.845070 0.109622 0.192599 -0.864416 -0.060217 -0.103658 -0.086607 2.197434 0.804038 0.000000 0.000000 0.000000 3.507426 -0.424044 -0.641728 0.139420 0.026357 0.947551 0.058938 -1.218507 -1.188473 0.000000 0.000000 0.000000 -1.278667 -0.313501 0.365034 -0.204408 0.147012 -0.836189 -0.538823 -3.209453 -0.850602 0.000000 0.000000 0.000000 -0.002225 0.419477 -2.093487 -0.010298 0.926674 0.801627 0.032070 -0.633792 -0.121113 0.000000 0.000000 0.000000 -5.807885 1.249567 1.094753 -5.742929 -1.600987 -2.694292 -5.713657 2.349665 -2.043837 0.000000 0.000000 0.000000 
-393.979370 924.917297 1141.693970 15.290962 0.101060 0.760411 -0.916413 -0.469054 -0.999001 -0.842250 0.102426 0.194147 -0.861582 -0.053001 -0.103673 -0.087349 2.190579 0.804515 0.000000 0.000000 0.000000 3.506265 -0.424364 -0.651438 0.141192 0.019610 0.966336 0.059270 -1.224610 -1.190416 0.000000 0.000000 0.000000 -1.271072 -0.309418 0.352919 -0.204727 0.146742 -0.834343 -0.539426 -3.213138 -0.848441 0.000000 0.000000 0.000000 -0.003288 0.380039 -2.104737 -0.010503 0.946920 0.811365 0.032581 -0.621266 -0.118202 0.000000 0.000000 0.000000 -5.805593 1.217870 1.096069 -5.740896 -1.600226 -2.704799 -5.713366 2.375110 -2.036977 0.000000 0.000000 0.000000 
-394.397003 924.950134 1141.698975 15.293175 0.108405 0.760335 -0.912778 -0.420009 -0.993993 -0.839345 0.094587 0.195362 -0.858618 -0.044806 -0.103484 -0.087967 2.182336 0.804248 0.000000 0.000000 0.000000 3.506889 -0.423521 -0.662099 0.143081 0.013761 0.987322 0.059570 -1.230155 -1.192096 0.000000 0.000000 0.000000 -1.262770 -0.306405 0.341037 -0.204847 0.144766 -0.829761 -0.540083 -3.216766 -0.847039 0.000000 0.000000 0.000000 -0.004163 0.336589 -2.117860 -0.010384 0.971013 0.821583 0.033366 -0.610416 -0.115527 0.000000 0.000000 0.000000 -5.802578 1.185296 1.096830 -5.738126 -1.602520 -2.717097 -5.712559 2.403820 -2.029002 0.000000 0.000000 0.000000 
-394.836121 924.984863 1141.693970 15.296544 0.115910 0.759488 -0.909344 -0.370086 -0.985023 -0.837036 0.081389 0.194315 -0.855910 -0.031881 -0.101420 -0.088208 2.180589 0.804315 0.000000 0.000000 0.000000 3.536079 -0.426217 -0.658540 0.142788 0.018239 0.988035 0.060077 -1.236856 -1.191370 0.000000 0.000000 0.000000 -1.256140 -0.304776 0.327552 -0.204760 0.140891 -0.822749 -0.540879 -3.219553 -0.848261 0.000000 0.000000 0.000000 -0.005559 0.292418 -2.129755 -0.010768 0.994073 0.830543 0.033577 -0.599442 -0.113085 0.000000 0.000000 0.000000 -5.808075 1.150179 1.098671 -5.743854 -1.599653 -2.731749 -5.720215 2.427763 -2.026223 0.000000 0.000000 0.000000 
-395.378662 925.021057 1141.687988 15.303400 0.111043 0.753583 -0.906821 -0.303881 -0.972593 -0.835982 0.056458 0.193142 -0.854215 -0.009443 -0.098193 -0.087711 2.197350 0.804896 0.000000 0.000000 0.000000 3.528732 -0.453419 -0.609413 0.139854 0.009953 0.938257 0.058675 -1.221360 -1.204851 0.000000 0.000000 0.000000 -1.256961 -0.308227 0.276592 -0.203163 0.117968 -0.780197 -0.542025 -3.233910 -0.834704 0.000000 0.000000 0.000000 -0.008356 0.256676 -2.136409 -0.012693 1.016203 0.837176 0.032189 -0.583617 -0.110330 0.000000 0.000000 0.000000 -5.831256 1.119317 1.103180 -5.767204 -1.583070 -2.748183 -5.745072 2.439467 -2.034717 0.000000 0.000000 0.000000 
-395.942688 925.059082 1141.671997 15.312044 0.105797 0.746855 -0.904945 -0.234922 -0.956725 -0.835914 0.024088 0.190358 -0.853130 0.018540 -0.092276 -0.086270 2.220333 0.803687 0.000000 0.000000 0.000000 3.550330 -0.484306 -0.547126 0.134790 0.011670 0.868495 0.057433 -1.206333 -1.215969 0.000000 0.000000 0.000000 -1.258830 -0.312991 0.223239 -0.201429 0.092971 -0.735503 -0.543263 -3.247476 -0.823152 0.000000 0.000000 0.000000 -0.011862 0.220863 -2.141753 -0.015322 1.037423 0.842559 0.030035 -0.567480 -0.107856 0.000000 0.000000 0.000000 -5.863195 1.086324 1.108938 -5.799281 -1.561019 -2.767280 -5.778658 2.446073 -2.048619 0.000000 0.000000 0.000000 
-396.285706 925.100220 1141.609985 15.316845 0.137880 0.750382 -0.902896 -0.215792 -0.932287 -0.836461 -0.000772 0.178165 -0.851668 0.047077 -0.079674 -0.083244 2.220081 0.795939 0.000000 0.000000 0.000000 3.828570 -0.461617 -0.550840 0.126673 0.102374 0.846892 0.063093 -1.265880 -1.173756 0.000000 0.000000 0.000000 -1.242675 -0.308587 0.275250 -0.203642 0.116691 -0.789150 -0.544371 -3.223877 -0.868612 0.000000 0.000000 0.000000 -0.015481 0.160402 -2.154893 -0.017712 1.050773 0.847972 0.028075 -0.560579 -0.107272 0.000000 0.000000 0.000000 -5.883884 1.027890 1.112216 -5.820232 -1.549824 -2.790825 -5.802072 2.459082 -2.056002 0.000000 0.000000 0.000000 
-396.502625 925.196899 1141.406006 15.311023 0.159398 0.747337 -0.909811 -0.353657 -0.915967 -0.845088 -0.004724 0.151377 -0.857008 0.067078 -0.058473 -0.079242 2.329026 0.814990 0.000000 0.000000 0.000000 4.561440 -0.389343 -0.679045 0.112458 0.310896 0.879006 0.069738 -1.260085 -0.986228 0.000000 0.000000 0.000000 -1.176974 -0.300723 0.500617 -0.211028 0.210253 -1.028167 -0.519497 -3.017469 -0.931990 0.000000 0.000000 0.000000 -0.017252 0.119876 -2.163907 -0.018696 1.067652 0.859571 0.027576 -0.582976 -0.112298 0.000000 0.000000 0.000000 -5.881422 0.994271 1.121198 -5.817601 -1.547820 -2.816310 -5.803199 2.471567 -2.053137 0.000000 0.000000 0.000000 
-396.499634 925.297424 1141.157959 15.301293 0.218665 0.754516 -0.915463 -0.541526 -0.890138 -0.853045 -0.002628 0.117173 -0.860842 0.089316 -0.031362 -0.071639 2.413440 0.821740 0.000000 0.000000 0.000000 5.546164 -0.261383 -0.869631 0.095169 0.610068 0.958837 0.083937 -1.338425 -0.740129 0.000000 0.000000 0.000000 -1.098267 -0.283508 0.827319 -0.222324 0.351449 -1.360444 -0.494968 -2.773593 -1.054518 0.000000 0.000000 0.000000 -0.018970 0.054074 -2.180655 -0.019282 1.076800 0.871045 0.027411 -0.613957 -0.119011 0.000000 0.000000 0.000000 -5.867581 0.934605 1.127864 -5.803712 -1.556451 -2.846639 -5.794087 2.491154 -2.043539 0.000000 0.000000 0.000000 
-395.760590 925.252502 1141.125000 15.301707 0.493158 0.833393 -0.893410 -0.495642 -0.796485 -0.840291 -0.032206 0.086841 -0.843779 0.140264 -0.003620 -0.057227 2.046352 0.702722 0.000000 0.000000 0.000000 6.423405 -0.009248 -1.028880 0.082884 0.988911 1.156799 0.130021 -1.995802 -0.687097 0.000000 0.000000 0.000000 -1.067372 -0.226300 1.144464 -0.238153 0.522046 -1.610815 -0.549117 -2.893532 -1.411099 0.000000 0.000000 0.000000 -0.023803 -0.191806 -2.250836 -0.019922 1.037279 0.865725 0.026794 -0.603749 -0.117103 0.000000 0.000000 0.000000 -5.857500 0.679576 1.102849 -5.795619 -1.598426 -2.890451 -5.791613 2.551381 -2.025862 0.000000 0.000000 0.000000 
-394.089172 924.974487 1141.443970 15.313745 1.044959 1.007530 -0.817672 0.067693 -0.528781 -0.785569 -0.118749 0.052653 -0.783847 0.223248 0.024652 -0.035205 0.879757 0.352877 0.000000 0.000000 0.000000 7.117565 0.450729 -1.107498 0.050686 1.511030 1.565278 0.211693 -3.761854 -1.086156 0.000000 0.000000 0.000000 -1.060219 -0.118195 1.445344 -0.277483 0.717525 -1.738763 -0.761078 -3.703256 -2.225626 0.000000 0.000000 0.000000 -0.029369 -0.644133 -2.384303 -0.018099 0.872511 0.822898 0.028349 -0.500394 -0.094253 0.000000 0.000000 0.000000 -5.854630 0.199843 1.054931 -5.796903 -1.746816 -2.983617 -5.801987 2.690673 -1.992516 0.000000 0.000000 0.000000 
-391.681702 924.550964 1141.978027 15.339212 1.794619 1.249253 -0.718314 0.895772 -0.176232 -0.699851 -0.212417 0.017818 -0.693600 0.276527 0.040201 -0.018618 -0.764185 -0.141344 0.000000 0.000000 0.000000 7.698079 1.016299 -1.091202 -0.070240 2.135828 2.064469 0.253457 -6.100788 -1.734902 0.000000 0.000000 0.000000 -1.087719 0.050113 1.698603 -0.341022 0.941334 -1.732711 -1.071140 -4.881655 -3.269606 0.000000 0.000000 0.000000 -0.038012 -1.255599 -2.565405 -0.015739 0.654248 0.761434 0.030770 -0.346380 -0.060168 0.000000 0.000000 0.000000 -5.853878 -0.453398 0.978604 -5.803804 -1.934319 -3.090713 -5.818994 2.880621 -1.948217 0.000000 0.000000 0.000000 
-388.606781 924.087830 1142.587036 15.394965 2.720552 1.546505 -0.650240 1.444077 0.006422 -0.623922 -0.255343 0.018817 -0.617714 0.275612 0.027149 -0.021988 -2.303504 -0.588211 0.000000 0.000000 0.000000 8.042251 1.489772 -0.984415 -0.248050 2.678516 2.421399 0.237501 -7.911129 -2.155965 0.000000 0.000000 0.000000 -1.278032 0.294994 1.776366 -0.382300 1.189138 -1.490904 -1.328543 -5.866268 -4.042130 0.000000 0.000000 0.000000 -0.060576 -2.086822 -2.802798 -0.019582 0.566074 0.722507 0.026566 -0.228285 -0.036793 0.000000 0.000000 0.000000 -5.858185 -1.344536 0.823272 -5.822711 -1.971505 -3.116851 -5.842053 3.058221 -1.909632 0.000000 0.000000 0.000000 
-384.862640 923.593506 1143.229980 15.486067 4.021989 1.965909 -0.623425 1.456473 -0.164046 -0.571526 -0.251941 0.084515 -0.571616 0.258643 -0.013813 -0.053355 -3.747344 -0.946181 0.000000 0.000000 0.000000 8.008490 1.767737 -0.682841 -0.432982 3.073993 2.339735 0.223958 -8.905251 -1.967690 0.000000 0.000000 0.000000 -1.743724 0.633060 1.468279 -0.343704 1.396649 -0.735526 -1.477173 -6.485319 -4.467255 0.000000 0.000000 0.000000 -0.100772 -3.284647 -3.161144 -0.030207 0.455682 0.693055 0.017629 -0.078809 -0.008851 0.000000 0.000000 0.000000 -5.873342 -2.693243 0.527635 -5.864050 -1.881455 -3.032396 -5.877480 3.281338 -1.863800 0.000000 0.000000 0.000000 
-380.450104 923.059753 1143.947021 15.622603 5.499558 2.443829 -0.623889 1.193613 -0.499901 -0.544941 -0.205564 0.173132 -0.555461 0.195688 -0.072998 -0.101552 -5.088890 -1.239196 0.000000 0.000000 0.000000 7.767877 1.974049 -0.316711 -0.592564 3.391502 2.109055 0.221079 -9.387825 -1.521223 0.000000 0.000000 0.000000 -2.415923 1.044961 1.017268 -0.265707 1.645589 0.213334 -1.553789 -6.916439 -4.622686 0.000000 0.000000 0.000000 -0.157035 -4.702796 -3.572417 -0.044457 0.471917 0.684113 0.004065 0.054490 0.013531 0.000000 0.000000 0.000000 -5.892434 -4.280231 0.153755 -5.916771 -1.645010 -2.867757 -5.919573 3.516109 -1.817057 0.000000 0.000000 0.000000 
